<?xml version="1.0" encoding="utf-8" ?>
<svg baseProfile="full" height="1024" version="1.1" width="1024" xmlns="http://www.w3.org/2000/svg" xmlns:ev="http://www.w3.org/2001/xml-events" xmlns:xlink="http://www.w3.org/1999/xlink"><defs /><path d="M 546,194 L 545,195 L 540,195 L 539,196 L 535,196 L 534,197 L 530,197 L 529,198 L 526,198 L 525,199 L 523,199 L 522,200 L 519,200 L 518,201 L 516,201 L 515,202 L 513,202 L 512,203 L 510,203 L 509,204 L 507,204 L 506,205 L 505,205 L 504,206 L 502,206 L 501,207 L 500,207 L 499,208 L 497,208 L 496,209 L 495,209 L 494,210 L 493,210 L 492,211 L 491,211 L 490,212 L 489,212 L 488,213 L 487,213 L 486,214 L 485,214 L 484,215 L 483,215 L 482,216 L 481,216 L 480,217 L 479,217 L 477,219 L 476,219 L 475,220 L 474,220 L 472,222 L 471,222 L 469,224 L 468,224 L 466,226 L 465,226 L 463,228 L 462,228 L 459,231 L 458,231 L 454,235 L 453,235 L 446,242 L 445,242 L 437,250 L 437,251 L 430,258 L 430,259 L 426,263 L 426,264 L 423,267 L 423,268 L 420,271 L 420,272 L 417,275 L 417,276 L 416,277 L 416,278 L 414,280 L 414,281 L 412,283 L 412,284 L 411,285 L 411,286 L 409,288 L 409,289 L 408,290 L 408,291 L 407,292 L 407,293 L 406,294 L 406,295 L 404,297 L 404,298 L 403,299 L 403,300 L 402,301 L 402,303 L 401,304 L 401,305 L 400,306 L 400,307 L 399,308 L 399,309 L 398,310 L 398,312 L 397,313 L 397,314 L 396,315 L 396,317 L 395,318 L 395,319 L 394,320 L 394,322 L 393,323 L 393,325 L 392,326 L 392,328 L 391,329 L 391,331 L 390,332 L 390,334 L 389,335 L 389,338 L 388,339 L 388,342 L 387,343 L 387,346 L 386,347 L 386,351 L 385,352 L 385,356 L 384,357 L 384,363 L 383,364 L 383,371 L 382,372 L 382,383 L 381,384 L 381,408 L 382,409 L 382,411 L 383,412 L 383,413 L 387,417 L 388,417 L 389,418 L 390,418 L 391,419 L 401,419 L 402,418 L 406,418 L 407,417 L 410,417 L 411,416 L 415,416 L 416,415 L 427,415 L 428,414 L 433,414 L 434,415 L 447,415 L 448,416 L 451,416 L 452,417 L 456,417 L 457,418 L 460,418 L 461,419 L 463,419 L 464,420 L 466,420 L 467,421 L 469,421 L 470,422 L 471,422 L 472,423 L 473,423 L 474,424 L 476,424 L 477,425 L 478,425 L 479,426 L 480,426 L 481,427 L 482,427 L 484,429 L 485,429 L 486,430 L 487,430 L 488,431 L 489,431 L 491,433 L 492,433 L 494,435 L 495,435 L 498,438 L 499,438 L 501,440 L 502,440 L 504,442 L 505,442 L 507,444 L 507,445 L 485,467 L 485,468 L 477,476 L 477,477 L 461,493 L 461,494 L 447,508 L 447,509 L 427,529 L 427,530 L 414,543 L 414,544 L 397,561 L 397,562 L 379,580 L 379,581 L 363,597 L 363,598 L 350,611 L 350,612 L 328,634 L 328,635 L 310,653 L 310,654 L 290,674 L 290,675 L 270,695 L 270,696 L 256,710 L 256,711 L 255,712 L 254,712 L 253,713 L 253,714 L 251,716 L 250,716 L 250,717 L 232,735 L 232,736 L 227,741 L 227,742 L 225,744 L 225,745 L 224,746 L 224,747 L 223,748 L 223,749 L 222,750 L 222,753 L 221,754 L 221,765 L 222,766 L 222,770 L 223,771 L 223,772 L 224,773 L 224,775 L 226,777 L 226,778 L 240,792 L 241,792 L 250,801 L 251,801 L 254,804 L 255,804 L 256,805 L 257,805 L 258,806 L 260,806 L 261,807 L 264,807 L 265,808 L 275,808 L 276,807 L 277,808 L 278,807 L 280,807 L 281,806 L 283,806 L 284,805 L 285,805 L 286,804 L 287,804 L 289,802 L 290,802 L 291,801 L 292,801 L 316,777 L 316,776 L 341,751 L 341,750 L 365,726 L 365,725 L 383,707 L 383,706 L 402,687 L 402,686 L 414,674 L 414,673 L 437,650 L 437,649 L 451,635 L 451,634 L 467,618 L 467,617 L 484,600 L 484,599 L 501,582 L 501,581 L 517,565 L 517,564 L 538,543 L 538,542 L 549,531 L 549,530 L 572,507 L 573,507 L 579,513 L 579,514 L 583,518 L 583,519 L 586,522 L 586,523 L 589,526 L 589,527 L 590,528 L 590,529 L 593,532 L 593,533 L 594,534 L 594,535 L 596,537 L 596,538 L 598,540 L 598,541 L 599,542 L 599,543 L 600,544 L 600,545 L 601,546 L 601,547 L 602,548 L 602,549 L 603,550 L 603,552 L 604,553 L 604,554 L 605,555 L 605,557 L 606,558 L 606,560 L 607,561 L 607,564 L 608,565 L 608,568 L 609,569 L 609,571 L 610,572 L 610,580 L 611,581 L 611,591 L 610,592 L 610,600 L 609,601 L 609,606 L 608,607 L 608,610 L 607,611 L 607,614 L 606,615 L 606,618 L 605,619 L 605,627 L 606,628 L 606,629 L 608,631 L 608,632 L 610,634 L 611,634 L 613,636 L 614,636 L 615,637 L 618,637 L 619,638 L 625,638 L 626,637 L 637,637 L 638,636 L 644,636 L 645,635 L 649,635 L 650,634 L 655,634 L 656,633 L 660,633 L 661,632 L 664,632 L 665,631 L 668,631 L 669,630 L 671,630 L 672,629 L 675,629 L 676,628 L 678,628 L 679,627 L 681,627 L 682,626 L 683,626 L 684,625 L 686,625 L 687,624 L 689,624 L 690,623 L 691,623 L 692,622 L 693,622 L 694,621 L 696,621 L 697,620 L 698,620 L 699,619 L 700,619 L 701,618 L 702,618 L 703,617 L 704,617 L 705,616 L 706,616 L 707,615 L 708,615 L 709,614 L 710,614 L 711,613 L 712,613 L 713,612 L 714,612 L 716,610 L 717,610 L 718,609 L 719,609 L 721,607 L 722,607 L 724,605 L 725,605 L 727,603 L 728,603 L 730,601 L 731,601 L 734,598 L 735,598 L 737,596 L 738,596 L 742,592 L 743,592 L 751,584 L 752,584 L 758,578 L 758,577 L 759,576 L 760,576 L 760,575 L 767,568 L 767,567 L 772,562 L 772,561 L 776,557 L 776,556 L 778,554 L 778,553 L 781,550 L 781,549 L 783,547 L 783,546 L 785,544 L 785,543 L 786,542 L 786,541 L 788,539 L 788,538 L 789,537 L 789,536 L 791,534 L 791,533 L 792,532 L 792,531 L 793,530 L 793,529 L 795,527 L 795,526 L 796,525 L 796,524 L 797,523 L 797,521 L 798,520 L 798,519 L 799,518 L 799,517 L 800,516 L 800,515 L 801,514 L 801,513 L 802,512 L 802,511 L 803,510 L 803,508 L 804,507 L 804,506 L 805,505 L 805,503 L 806,502 L 806,500 L 807,499 L 807,498 L 808,497 L 808,495 L 809,494 L 809,491 L 810,490 L 810,489 L 811,488 L 811,485 L 812,484 L 812,481 L 813,480 L 813,478 L 814,477 L 814,472 L 815,471 L 815,467 L 816,466 L 816,462 L 817,461 L 817,454 L 818,453 L 818,444 L 817,443 L 817,440 L 816,439 L 816,438 L 815,437 L 815,436 L 814,435 L 814,434 L 810,430 L 809,430 L 808,429 L 806,429 L 805,428 L 801,428 L 800,429 L 794,429 L 793,430 L 788,430 L 787,431 L 762,431 L 761,430 L 755,430 L 754,429 L 750,429 L 749,428 L 746,428 L 745,427 L 741,427 L 740,426 L 737,426 L 736,425 L 734,425 L 733,424 L 730,424 L 729,423 L 727,423 L 726,422 L 724,422 L 723,421 L 721,421 L 720,420 L 719,420 L 718,419 L 717,419 L 716,418 L 715,418 L 714,417 L 713,417 L 712,416 L 711,416 L 709,414 L 708,414 L 706,412 L 705,412 L 703,410 L 702,410 L 700,408 L 699,408 L 696,405 L 695,405 L 693,403 L 692,403 L 688,399 L 687,399 L 684,396 L 683,396 L 679,392 L 679,390 L 696,373 L 696,372 L 711,357 L 711,356 L 714,353 L 714,352 L 715,351 L 715,350 L 716,349 L 716,346 L 717,345 L 717,339 L 716,338 L 716,337 L 715,336 L 715,335 L 688,308 L 687,308 L 678,299 L 677,299 L 672,294 L 671,294 L 669,292 L 668,292 L 667,291 L 666,291 L 665,290 L 657,290 L 656,291 L 655,291 L 653,293 L 652,293 L 650,295 L 649,295 L 645,299 L 645,300 L 638,307 L 638,308 L 625,321 L 625,322 L 616,331 L 614,331 L 612,329 L 611,329 L 598,316 L 598,315 L 593,310 L 593,309 L 590,306 L 590,305 L 587,302 L 587,301 L 585,299 L 585,298 L 582,295 L 582,294 L 580,292 L 580,291 L 579,290 L 579,289 L 577,287 L 577,286 L 576,285 L 576,284 L 574,282 L 574,281 L 573,280 L 573,279 L 572,278 L 572,277 L 571,276 L 571,275 L 570,274 L 570,273 L 569,272 L 569,270 L 568,269 L 568,268 L 567,267 L 567,265 L 566,264 L 566,262 L 565,261 L 565,258 L 564,257 L 564,255 L 563,254 L 563,250 L 562,249 L 562,241 L 561,240 L 561,234 L 562,233 L 562,227 L 563,226 L 563,222 L 564,221 L 564,218 L 565,217 L 565,214 L 566,213 L 566,205 L 565,204 L 565,202 L 563,200 L 563,199 L 560,196 L 559,196 L 558,195 L 556,195 L 555,194 Z" fill="black" /></svg>