<?xml version="1.0" encoding="utf-8" ?>
<svg baseProfile="full" height="1024" version="1.1" width="1024" xmlns="http://www.w3.org/2000/svg" xmlns:ev="http://www.w3.org/2001/xml-events" xmlns:xlink="http://www.w3.org/1999/xlink"><defs /><path d="M 448,577 L 447,578 L 446,578 L 442,582 L 442,585 L 441,586 L 442,587 L 441,588 L 441,614 L 442,615 L 442,619 L 446,623 L 447,623 L 448,624 L 480,624 L 481,625 L 481,654 L 482,655 L 482,688 L 483,689 L 483,721 L 484,722 L 484,760 L 485,761 L 485,796 L 486,797 L 486,824 L 487,825 L 487,827 L 488,828 L 488,829 L 489,830 L 489,831 L 493,835 L 494,835 L 495,836 L 496,836 L 497,837 L 500,837 L 501,838 L 524,838 L 525,837 L 527,837 L 528,836 L 529,836 L 535,830 L 535,829 L 536,828 L 536,825 L 537,824 L 537,800 L 538,799 L 538,773 L 539,772 L 539,742 L 540,741 L 540,714 L 541,713 L 541,688 L 542,687 L 542,660 L 543,659 L 543,631 L 544,630 L 544,625 L 545,624 L 576,624 L 577,623 L 578,623 L 581,620 L 581,618 L 582,617 L 582,583 L 581,582 L 581,581 L 578,578 L 577,578 L 576,577 Z" fill="black" /><path d="M 629,523 L 628,524 L 626,524 L 624,526 L 623,526 L 621,528 L 621,529 L 620,530 L 620,531 L 619,532 L 619,542 L 620,543 L 620,544 L 621,545 L 621,546 L 660,585 L 661,585 L 669,593 L 670,593 L 672,595 L 675,595 L 676,596 L 679,596 L 680,595 L 682,595 L 683,594 L 684,594 L 685,593 L 686,593 L 689,590 L 689,589 L 690,588 L 690,587 L 691,586 L 691,578 L 690,577 L 690,576 L 689,575 L 689,574 L 687,572 L 687,571 L 642,526 L 641,526 L 639,524 L 637,524 L 636,523 Z" fill="black" /><path d="M 387,523 L 386,524 L 385,524 L 384,525 L 383,525 L 382,526 L 381,526 L 337,570 L 337,571 L 336,572 L 335,572 L 335,573 L 334,574 L 334,575 L 333,576 L 333,578 L 332,579 L 332,584 L 333,585 L 333,587 L 334,588 L 334,589 L 337,592 L 337,593 L 338,593 L 339,594 L 340,594 L 341,595 L 343,595 L 344,596 L 348,596 L 349,595 L 351,595 L 352,594 L 353,594 L 355,592 L 356,592 L 402,546 L 402,545 L 403,544 L 403,543 L 404,542 L 404,540 L 405,539 L 405,534 L 404,533 L 404,531 L 402,529 L 402,528 L 399,525 L 398,525 L 397,524 L 395,524 L 394,523 Z" fill="black" /><path d="M 678,407 L 677,408 L 676,408 L 675,409 L 674,409 L 669,414 L 669,415 L 668,416 L 668,425 L 669,426 L 669,427 L 670,428 L 670,429 L 673,432 L 674,432 L 675,433 L 676,433 L 677,434 L 681,434 L 682,435 L 744,435 L 745,434 L 748,434 L 749,433 L 750,433 L 751,432 L 752,432 L 756,428 L 756,426 L 757,425 L 757,422 L 758,421 L 758,420 L 757,419 L 757,416 L 756,415 L 756,414 L 755,413 L 755,412 L 753,410 L 752,410 L 750,408 L 747,408 L 746,407 Z" fill="black" /><path d="M 278,407 L 277,408 L 275,408 L 274,409 L 273,409 L 272,410 L 271,410 L 268,413 L 268,414 L 267,415 L 267,417 L 266,418 L 266,424 L 267,425 L 267,427 L 269,429 L 269,430 L 271,432 L 272,432 L 273,433 L 274,433 L 275,434 L 278,434 L 279,435 L 343,435 L 344,434 L 346,434 L 347,433 L 349,433 L 353,429 L 353,428 L 354,427 L 354,426 L 355,425 L 355,417 L 354,416 L 354,415 L 353,414 L 353,413 L 350,410 L 349,410 L 348,409 L 347,409 L 346,408 L 342,408 L 341,407 L 280,407 L 279,408 Z" fill="black" /><path d="M 496,295 L 495,296 L 495,299 L 496,300 L 496,308 L 497,309 L 497,315 L 496,316 L 496,321 L 495,322 L 495,325 L 494,326 L 494,328 L 493,329 L 493,331 L 492,332 L 492,333 L 491,334 L 491,335 L 490,336 L 490,337 L 489,338 L 489,339 L 488,340 L 488,341 L 487,342 L 487,343 L 485,345 L 485,346 L 483,348 L 483,349 L 481,351 L 481,352 L 480,353 L 480,354 L 477,357 L 477,358 L 474,361 L 474,362 L 464,372 L 464,373 L 458,379 L 458,380 L 453,385 L 453,386 L 450,389 L 450,390 L 448,392 L 448,393 L 446,395 L 446,396 L 443,399 L 443,400 L 441,402 L 441,403 L 438,406 L 438,407 L 436,409 L 436,410 L 434,412 L 434,413 L 432,415 L 432,416 L 431,417 L 431,418 L 429,420 L 429,421 L 427,423 L 427,424 L 426,425 L 426,426 L 425,427 L 425,428 L 424,429 L 424,430 L 422,432 L 422,434 L 420,436 L 420,438 L 419,439 L 419,440 L 418,441 L 418,442 L 417,443 L 417,445 L 416,446 L 416,448 L 415,449 L 415,452 L 414,453 L 414,458 L 413,459 L 413,477 L 414,478 L 414,483 L 415,484 L 415,486 L 416,487 L 416,490 L 417,491 L 417,493 L 418,494 L 418,495 L 419,496 L 419,498 L 420,499 L 420,500 L 421,501 L 421,502 L 422,503 L 422,504 L 423,505 L 423,506 L 425,508 L 425,509 L 426,510 L 426,511 L 429,514 L 429,515 L 434,520 L 434,521 L 444,531 L 445,531 L 447,533 L 448,533 L 450,535 L 451,535 L 452,536 L 453,536 L 455,538 L 456,538 L 457,539 L 458,539 L 459,540 L 460,540 L 461,541 L 462,541 L 463,542 L 465,542 L 466,543 L 467,543 L 468,544 L 469,544 L 470,545 L 472,543 L 471,542 L 471,540 L 470,539 L 470,538 L 469,537 L 469,535 L 468,534 L 468,533 L 467,532 L 467,530 L 466,529 L 466,528 L 465,527 L 465,525 L 464,524 L 464,522 L 463,521 L 463,518 L 462,517 L 462,514 L 461,513 L 461,509 L 460,508 L 460,489 L 461,488 L 461,484 L 462,483 L 462,480 L 463,479 L 463,477 L 464,476 L 464,475 L 465,474 L 465,472 L 466,471 L 466,470 L 467,469 L 467,467 L 468,466 L 468,465 L 469,464 L 469,463 L 470,462 L 470,461 L 471,460 L 471,459 L 472,458 L 472,457 L 474,455 L 474,454 L 475,453 L 475,452 L 477,450 L 477,449 L 479,447 L 479,446 L 481,444 L 481,443 L 483,441 L 483,440 L 486,437 L 486,436 L 490,432 L 490,431 L 493,428 L 493,427 L 496,424 L 496,423 L 499,420 L 499,419 L 503,415 L 503,414 L 506,411 L 506,410 L 509,407 L 509,406 L 513,402 L 513,401 L 516,398 L 516,397 L 518,395 L 519,396 L 519,398 L 520,399 L 520,413 L 521,414 L 521,432 L 522,433 L 522,446 L 523,447 L 523,451 L 524,452 L 524,456 L 525,457 L 525,460 L 526,461 L 526,463 L 527,464 L 527,465 L 528,466 L 528,467 L 529,468 L 529,469 L 530,470 L 530,471 L 531,472 L 531,473 L 534,476 L 534,477 L 538,481 L 538,482 L 543,487 L 543,488 L 546,491 L 546,492 L 547,493 L 547,494 L 549,496 L 549,498 L 550,499 L 550,501 L 551,502 L 551,504 L 552,505 L 552,510 L 553,511 L 553,525 L 552,526 L 552,529 L 551,530 L 551,532 L 550,533 L 550,534 L 549,535 L 549,537 L 548,538 L 548,539 L 545,542 L 545,544 L 546,545 L 548,545 L 549,544 L 551,544 L 552,543 L 553,543 L 554,542 L 556,542 L 557,541 L 558,541 L 559,540 L 560,540 L 561,539 L 562,539 L 563,538 L 564,538 L 565,537 L 566,537 L 567,536 L 568,536 L 569,535 L 570,535 L 572,533 L 573,533 L 574,532 L 575,532 L 578,529 L 579,529 L 581,527 L 582,527 L 585,524 L 586,524 L 592,518 L 592,517 L 595,514 L 595,513 L 597,511 L 597,510 L 599,508 L 599,507 L 600,506 L 600,505 L 602,503 L 602,502 L 603,501 L 603,500 L 604,499 L 604,497 L 605,496 L 605,495 L 606,494 L 606,492 L 607,491 L 607,489 L 608,488 L 608,486 L 609,485 L 609,481 L 610,480 L 610,475 L 611,474 L 611,453 L 610,452 L 610,445 L 609,444 L 609,442 L 608,441 L 608,438 L 607,437 L 607,435 L 606,434 L 606,432 L 605,431 L 605,429 L 604,428 L 604,426 L 603,425 L 603,424 L 602,423 L 602,422 L 601,421 L 601,419 L 600,418 L 600,417 L 599,416 L 599,415 L 598,415 L 597,414 L 596,415 L 596,416 L 595,417 L 595,418 L 594,419 L 594,421 L 592,423 L 592,424 L 585,431 L 584,431 L 582,433 L 581,433 L 580,434 L 579,434 L 578,435 L 577,435 L 575,437 L 574,437 L 573,438 L 571,438 L 570,439 L 569,439 L 568,440 L 567,440 L 566,441 L 565,441 L 564,442 L 563,442 L 562,441 L 564,439 L 564,438 L 565,437 L 565,436 L 567,434 L 567,433 L 568,432 L 568,431 L 569,430 L 569,428 L 570,427 L 570,426 L 571,425 L 571,423 L 572,422 L 572,420 L 573,419 L 573,417 L 574,416 L 574,412 L 575,411 L 575,403 L 576,402 L 576,388 L 575,387 L 575,383 L 574,382 L 574,377 L 573,376 L 573,373 L 572,372 L 572,370 L 571,369 L 571,366 L 570,365 L 570,363 L 569,362 L 569,361 L 568,360 L 568,359 L 567,358 L 567,356 L 566,355 L 566,354 L 565,353 L 565,352 L 563,350 L 563,349 L 562,348 L 562,347 L 560,345 L 560,344 L 559,343 L 559,342 L 556,339 L 556,338 L 553,335 L 553,334 L 549,330 L 549,329 L 542,322 L 542,321 L 539,318 L 538,318 L 532,312 L 531,312 L 529,310 L 528,310 L 526,308 L 525,308 L 523,306 L 522,306 L 521,305 L 520,305 L 519,304 L 518,304 L 517,303 L 516,303 L 515,302 L 514,302 L 513,301 L 512,301 L 511,300 L 510,300 L 509,299 L 508,299 L 507,298 L 505,298 L 504,297 L 502,297 L 501,296 L 499,296 L 498,295 Z" fill="black" /><path d="M 345,246 L 344,247 L 341,247 L 340,248 L 339,248 L 334,253 L 334,254 L 333,255 L 333,257 L 332,258 L 332,263 L 333,264 L 333,266 L 334,267 L 334,268 L 384,318 L 385,318 L 386,319 L 396,319 L 397,318 L 398,318 L 401,315 L 402,315 L 402,314 L 404,312 L 404,310 L 405,309 L 405,303 L 404,302 L 404,300 L 403,299 L 403,298 L 400,295 L 400,294 L 355,249 L 354,249 L 353,248 L 352,248 L 351,247 L 350,247 L 349,246 Z" fill="black" /><path d="M 673,245 L 672,246 L 671,246 L 670,247 L 669,247 L 621,295 L 621,296 L 620,297 L 620,298 L 619,299 L 619,302 L 618,303 L 618,305 L 619,306 L 619,309 L 620,310 L 620,311 L 622,313 L 622,314 L 623,314 L 626,317 L 628,317 L 629,318 L 635,318 L 636,317 L 638,317 L 639,316 L 640,316 L 689,267 L 689,266 L 690,265 L 690,263 L 691,262 L 691,255 L 690,254 L 690,253 L 689,252 L 689,251 L 684,246 L 682,246 L 681,245 Z" fill="black" /><path d="M 510,186 L 509,187 L 506,187 L 505,188 L 504,188 L 500,192 L 500,193 L 499,194 L 499,195 L 498,196 L 498,200 L 497,201 L 497,202 L 498,203 L 498,252 L 497,253 L 498,254 L 498,258 L 499,259 L 499,260 L 500,261 L 500,262 L 503,265 L 504,265 L 505,266 L 506,266 L 507,267 L 515,267 L 516,266 L 517,266 L 518,265 L 519,265 L 523,261 L 523,260 L 524,259 L 524,257 L 525,256 L 525,197 L 524,196 L 524,194 L 521,191 L 521,190 L 520,190 L 518,188 L 517,188 L 516,187 L 513,187 L 512,186 Z" fill="black" /></svg>