<?xml version="1.0" encoding="utf-8" ?>
<svg baseProfile="full" height="1024" version="1.1" width="1024" xmlns="http://www.w3.org/2000/svg" xmlns:ev="http://www.w3.org/2001/xml-events" xmlns:xlink="http://www.w3.org/1999/xlink"><defs /><path d="M 673,400 L 656,417 L 655,417 L 634,438 L 634,439 L 636,441 L 637,441 L 639,443 L 640,443 L 643,446 L 644,446 L 649,451 L 650,451 L 665,466 L 665,467 L 670,472 L 670,473 L 674,477 L 674,478 L 677,481 L 677,482 L 679,484 L 679,485 L 681,487 L 681,488 L 683,490 L 683,491 L 685,493 L 685,494 L 686,495 L 686,496 L 688,498 L 688,499 L 689,500 L 689,501 L 690,502 L 690,503 L 691,504 L 691,505 L 692,506 L 692,507 L 694,509 L 694,511 L 695,512 L 695,513 L 696,514 L 696,515 L 697,516 L 697,517 L 698,518 L 698,519 L 699,520 L 699,522 L 700,523 L 700,524 L 701,525 L 701,527 L 702,528 L 702,529 L 703,530 L 703,532 L 704,533 L 704,535 L 705,536 L 705,538 L 706,539 L 706,541 L 707,542 L 707,545 L 708,546 L 708,549 L 709,550 L 709,553 L 710,554 L 710,558 L 711,559 L 711,563 L 712,564 L 712,570 L 713,571 L 713,580 L 714,581 L 714,609 L 713,610 L 713,619 L 712,620 L 712,627 L 711,628 L 711,633 L 710,634 L 710,639 L 709,640 L 709,644 L 708,645 L 708,649 L 707,650 L 707,655 L 706,656 L 706,661 L 705,662 L 705,669 L 704,670 L 704,679 L 703,680 L 703,704 L 704,705 L 704,712 L 703,713 L 533,543 L 531,543 L 516,558 L 516,561 L 529,574 L 530,574 L 584,628 L 584,629 L 599,644 L 600,644 L 736,780 L 738,780 L 739,781 L 742,781 L 743,782 L 745,782 L 746,781 L 749,781 L 750,780 L 751,780 L 756,775 L 756,774 L 757,773 L 757,772 L 758,771 L 758,763 L 757,762 L 757,760 L 755,758 L 755,757 L 752,754 L 752,753 L 750,751 L 750,750 L 749,749 L 749,748 L 748,747 L 748,746 L 747,745 L 747,744 L 746,743 L 746,742 L 745,741 L 745,739 L 744,738 L 744,737 L 743,736 L 743,734 L 742,733 L 742,730 L 741,729 L 741,727 L 740,726 L 740,722 L 739,721 L 739,716 L 738,715 L 738,709 L 737,708 L 737,684 L 738,683 L 738,679 L 739,678 L 739,675 L 740,674 L 740,671 L 741,670 L 741,668 L 742,667 L 742,664 L 743,663 L 743,661 L 744,660 L 744,658 L 745,657 L 745,654 L 746,653 L 746,651 L 747,650 L 747,647 L 748,646 L 748,644 L 749,643 L 749,639 L 750,638 L 750,635 L 751,634 L 751,631 L 752,630 L 752,626 L 753,625 L 753,620 L 754,619 L 754,613 L 755,612 L 755,602 L 756,601 L 756,568 L 755,567 L 755,557 L 754,556 L 754,549 L 753,548 L 753,543 L 752,542 L 752,537 L 751,536 L 751,532 L 750,531 L 750,527 L 749,526 L 749,523 L 748,522 L 748,519 L 747,518 L 747,515 L 746,514 L 746,512 L 745,511 L 745,509 L 744,508 L 744,506 L 743,505 L 743,503 L 742,502 L 742,500 L 741,499 L 741,497 L 740,496 L 740,494 L 739,493 L 739,492 L 738,491 L 738,489 L 737,488 L 737,487 L 736,486 L 736,484 L 735,483 L 735,482 L 734,481 L 734,480 L 733,479 L 733,478 L 732,477 L 732,475 L 731,474 L 731,473 L 730,472 L 730,471 L 729,470 L 729,469 L 728,468 L 728,467 L 727,466 L 727,465 L 726,464 L 726,463 L 725,462 L 725,461 L 724,460 L 724,459 L 722,457 L 722,456 L 721,455 L 721,454 L 719,452 L 719,451 L 718,450 L 718,449 L 716,447 L 716,446 L 715,445 L 715,444 L 713,442 L 713,441 L 710,438 L 710,437 L 707,434 L 707,433 L 704,430 L 704,429 L 699,424 L 699,423 L 679,403 L 678,403 L 675,400 Z" fill="black" /><path d="M 253,266 L 252,267 L 250,267 L 249,268 L 248,268 L 244,272 L 244,273 L 243,274 L 243,275 L 242,276 L 242,285 L 243,286 L 243,288 L 402,447 L 403,447 L 462,506 L 464,506 L 479,491 L 479,489 L 395,405 L 394,405 L 346,357 L 346,356 L 340,350 L 339,350 L 312,323 L 311,323 L 309,321 L 310,320 L 319,320 L 320,321 L 323,321 L 324,320 L 338,320 L 339,319 L 345,319 L 346,318 L 351,318 L 352,317 L 357,317 L 358,316 L 362,316 L 363,315 L 367,315 L 368,314 L 371,314 L 372,313 L 376,313 L 377,312 L 381,312 L 382,311 L 386,311 L 387,310 L 391,310 L 392,309 L 398,309 L 399,308 L 407,308 L 408,307 L 440,307 L 441,308 L 448,308 L 449,309 L 455,309 L 456,310 L 460,310 L 461,311 L 465,311 L 466,312 L 469,312 L 470,313 L 473,313 L 474,314 L 476,314 L 477,315 L 479,315 L 480,316 L 483,316 L 484,317 L 486,317 L 487,318 L 488,318 L 489,319 L 491,319 L 492,320 L 494,320 L 495,321 L 496,321 L 497,322 L 499,322 L 500,323 L 501,323 L 502,324 L 503,324 L 504,325 L 505,325 L 506,326 L 507,326 L 508,327 L 509,327 L 510,328 L 512,328 L 513,329 L 514,329 L 516,331 L 517,331 L 518,332 L 519,332 L 520,333 L 521,333 L 522,334 L 523,334 L 525,336 L 526,336 L 527,337 L 528,337 L 530,339 L 531,339 L 533,341 L 534,341 L 536,343 L 537,343 L 540,346 L 541,346 L 543,348 L 544,348 L 547,351 L 548,351 L 552,355 L 553,355 L 558,360 L 559,360 L 568,369 L 569,369 L 582,382 L 583,382 L 584,383 L 585,383 L 590,378 L 591,378 L 622,347 L 622,345 L 616,339 L 615,339 L 608,332 L 607,332 L 602,327 L 601,327 L 596,322 L 595,322 L 591,318 L 590,318 L 587,315 L 586,315 L 583,312 L 582,312 L 579,309 L 578,309 L 576,307 L 575,307 L 573,305 L 572,305 L 570,303 L 569,303 L 567,301 L 566,301 L 565,300 L 564,300 L 562,298 L 561,298 L 560,297 L 559,297 L 557,295 L 556,295 L 555,294 L 554,294 L 553,293 L 552,293 L 551,292 L 550,292 L 549,291 L 548,291 L 547,290 L 546,290 L 545,289 L 544,289 L 543,288 L 542,288 L 541,287 L 540,287 L 539,286 L 537,286 L 536,285 L 535,285 L 534,284 L 533,284 L 532,283 L 530,283 L 529,282 L 528,282 L 527,281 L 525,281 L 524,280 L 522,280 L 521,279 L 519,279 L 518,278 L 516,278 L 515,277 L 513,277 L 512,276 L 510,276 L 509,275 L 506,275 L 505,274 L 503,274 L 502,273 L 499,273 L 498,272 L 495,272 L 494,271 L 490,271 L 489,270 L 485,270 L 484,269 L 479,269 L 478,268 L 472,268 L 471,267 L 463,267 L 462,266 L 421,266 L 420,267 L 410,267 L 409,268 L 402,268 L 401,269 L 395,269 L 394,270 L 389,270 L 388,271 L 384,271 L 383,272 L 380,272 L 379,273 L 375,273 L 374,274 L 371,274 L 370,275 L 367,275 L 366,276 L 363,276 L 362,277 L 360,277 L 359,278 L 356,278 L 355,279 L 352,279 L 351,280 L 349,280 L 348,281 L 345,281 L 344,282 L 341,282 L 340,283 L 335,283 L 334,284 L 314,284 L 313,283 L 307,283 L 306,282 L 301,282 L 300,281 L 297,281 L 296,280 L 293,280 L 292,279 L 290,279 L 289,278 L 287,278 L 286,277 L 284,277 L 283,276 L 281,276 L 280,275 L 278,275 L 277,274 L 276,274 L 275,273 L 273,273 L 272,272 L 271,272 L 270,271 L 269,271 L 268,270 L 267,270 L 266,269 L 265,269 L 264,268 L 263,268 L 262,267 L 261,267 L 260,266 Z" fill="black" /><path d="M 777,227 L 776,228 L 775,228 L 774,229 L 773,229 L 772,230 L 770,230 L 769,231 L 768,231 L 767,232 L 766,232 L 765,233 L 763,233 L 762,234 L 761,234 L 760,235 L 759,235 L 758,236 L 757,236 L 756,237 L 754,237 L 753,238 L 752,238 L 751,239 L 750,239 L 749,240 L 748,240 L 747,241 L 745,241 L 744,242 L 743,242 L 742,243 L 741,243 L 740,244 L 739,244 L 738,245 L 736,245 L 735,246 L 734,246 L 733,247 L 732,247 L 731,248 L 730,248 L 729,249 L 728,249 L 727,250 L 725,250 L 724,251 L 723,251 L 722,252 L 721,252 L 720,253 L 719,253 L 718,254 L 716,254 L 715,255 L 714,255 L 713,256 L 712,256 L 711,257 L 710,257 L 709,258 L 707,258 L 706,259 L 705,259 L 704,260 L 703,260 L 702,261 L 701,261 L 700,262 L 698,262 L 697,263 L 696,263 L 695,264 L 694,264 L 693,265 L 692,265 L 691,266 L 690,266 L 689,267 L 687,267 L 686,268 L 685,268 L 684,269 L 683,269 L 682,270 L 681,270 L 680,271 L 679,271 L 678,272 L 676,272 L 675,273 L 674,273 L 673,274 L 672,274 L 671,275 L 670,275 L 669,276 L 667,276 L 666,277 L 665,277 L 664,278 L 663,278 L 661,280 L 661,281 L 660,282 L 660,287 L 661,288 L 661,289 L 663,291 L 664,291 L 666,293 L 667,293 L 669,295 L 670,295 L 672,297 L 673,297 L 674,298 L 675,298 L 677,300 L 678,300 L 680,302 L 681,302 L 682,303 L 683,303 L 684,304 L 685,304 L 687,306 L 688,306 L 689,307 L 690,307 L 691,308 L 516,483 L 516,484 L 411,589 L 399,589 L 398,590 L 373,590 L 372,591 L 348,591 L 347,592 L 344,592 L 343,593 L 342,593 L 339,596 L 338,596 L 327,607 L 327,608 L 270,665 L 269,665 L 254,680 L 254,681 L 252,683 L 252,684 L 251,685 L 251,692 L 253,694 L 253,695 L 254,695 L 255,696 L 256,696 L 257,697 L 277,697 L 278,698 L 304,698 L 305,699 L 305,704 L 304,705 L 304,706 L 303,707 L 303,708 L 302,709 L 302,713 L 303,714 L 303,716 L 305,718 L 306,718 L 307,719 L 314,719 L 315,718 L 317,718 L 318,717 L 319,717 L 320,718 L 321,718 L 322,719 L 322,720 L 321,721 L 321,741 L 320,742 L 320,760 L 321,761 L 321,762 L 322,763 L 322,764 L 324,766 L 325,766 L 326,767 L 328,767 L 329,768 L 333,768 L 334,767 L 336,767 L 337,766 L 338,766 L 392,712 L 392,711 L 401,702 L 402,702 L 425,679 L 425,678 L 427,676 L 427,675 L 428,674 L 428,664 L 429,663 L 429,626 L 430,625 L 430,609 L 461,578 L 461,577 L 671,367 L 671,366 L 685,352 L 686,352 L 686,351 L 687,350 L 688,350 L 710,328 L 711,329 L 711,330 L 713,332 L 713,333 L 715,335 L 715,336 L 718,339 L 718,340 L 721,343 L 721,344 L 724,347 L 724,348 L 728,352 L 728,353 L 729,354 L 730,354 L 731,355 L 732,355 L 733,356 L 736,356 L 737,355 L 738,355 L 740,353 L 740,352 L 741,351 L 741,350 L 742,349 L 742,347 L 743,346 L 743,345 L 744,344 L 744,342 L 745,341 L 745,340 L 746,339 L 746,337 L 747,336 L 747,335 L 748,334 L 748,332 L 749,331 L 749,330 L 750,329 L 750,328 L 751,327 L 751,325 L 752,324 L 752,323 L 753,322 L 753,320 L 754,319 L 754,318 L 755,317 L 755,315 L 756,314 L 756,313 L 757,312 L 757,310 L 758,309 L 758,308 L 759,307 L 759,305 L 760,304 L 760,303 L 761,302 L 761,300 L 762,299 L 762,298 L 763,297 L 763,295 L 764,294 L 764,293 L 765,292 L 765,290 L 766,289 L 766,288 L 767,287 L 767,285 L 768,284 L 768,283 L 769,282 L 769,280 L 770,279 L 770,278 L 771,277 L 771,275 L 772,274 L 772,273 L 773,272 L 773,271 L 774,270 L 774,268 L 775,267 L 775,266 L 776,265 L 776,263 L 777,262 L 777,261 L 778,260 L 778,258 L 779,257 L 779,256 L 780,255 L 780,253 L 781,252 L 781,251 L 782,250 L 782,248 L 783,247 L 783,246 L 784,245 L 784,243 L 785,242 L 785,240 L 786,239 L 786,238 L 787,237 L 787,235 L 788,234 L 788,233 L 787,232 L 787,230 L 784,227 Z" fill="black" /></svg>