<?xml version="1.0" encoding="utf-8" ?>
<svg baseProfile="full" height="1024" version="1.1" width="1024" xmlns="http://www.w3.org/2000/svg" xmlns:ev="http://www.w3.org/2001/xml-events" xmlns:xlink="http://www.w3.org/1999/xlink"><defs /><path d="M 703,235 L 702,236 L 701,236 L 670,267 L 669,267 L 664,272 L 663,272 L 659,276 L 658,276 L 655,279 L 654,279 L 652,281 L 651,281 L 649,283 L 648,283 L 646,285 L 645,285 L 644,286 L 643,286 L 641,288 L 640,288 L 639,289 L 638,289 L 636,291 L 635,291 L 634,292 L 633,292 L 632,293 L 631,293 L 630,294 L 629,294 L 628,295 L 627,295 L 626,296 L 625,296 L 624,297 L 622,297 L 621,298 L 620,298 L 619,299 L 618,299 L 617,300 L 615,300 L 614,301 L 613,301 L 612,302 L 610,302 L 609,303 L 607,303 L 606,304 L 605,304 L 604,305 L 602,305 L 601,306 L 600,306 L 599,307 L 597,307 L 596,308 L 594,308 L 593,309 L 591,309 L 590,310 L 589,310 L 588,311 L 586,311 L 585,312 L 583,312 L 582,313 L 580,313 L 579,314 L 577,314 L 576,315 L 574,315 L 573,316 L 571,316 L 570,317 L 568,317 L 567,318 L 565,318 L 564,319 L 562,319 L 561,320 L 559,320 L 558,321 L 556,321 L 555,322 L 552,322 L 551,323 L 549,323 L 548,324 L 546,324 L 545,325 L 543,325 L 542,326 L 540,326 L 539,327 L 536,327 L 535,328 L 533,328 L 532,329 L 530,329 L 529,330 L 526,330 L 525,331 L 523,331 L 522,332 L 520,332 L 519,333 L 516,333 L 515,334 L 513,334 L 512,335 L 509,335 L 508,336 L 506,336 L 505,337 L 503,337 L 502,338 L 499,338 L 498,339 L 496,339 L 495,340 L 493,340 L 492,341 L 489,341 L 488,342 L 486,342 L 485,343 L 483,343 L 482,344 L 479,344 L 478,345 L 476,345 L 475,346 L 473,346 L 472,347 L 470,347 L 469,348 L 467,348 L 466,349 L 464,349 L 463,350 L 461,350 L 460,351 L 458,351 L 457,352 L 456,352 L 455,353 L 453,353 L 452,354 L 450,354 L 449,355 L 448,355 L 447,356 L 445,356 L 444,357 L 443,357 L 442,358 L 441,358 L 440,359 L 438,359 L 437,360 L 436,360 L 435,361 L 434,361 L 433,362 L 432,362 L 431,363 L 430,363 L 429,364 L 428,364 L 427,365 L 426,365 L 425,366 L 424,366 L 423,367 L 422,367 L 421,368 L 420,368 L 418,370 L 417,370 L 416,371 L 415,371 L 414,372 L 413,372 L 411,374 L 410,374 L 408,376 L 407,376 L 406,377 L 405,377 L 403,379 L 402,379 L 399,382 L 398,382 L 395,385 L 394,385 L 391,388 L 390,388 L 385,393 L 384,393 L 363,414 L 363,415 L 358,420 L 358,421 L 355,424 L 355,425 L 352,428 L 352,429 L 350,431 L 350,432 L 348,434 L 348,435 L 346,437 L 346,438 L 344,440 L 344,441 L 343,442 L 343,443 L 342,444 L 342,445 L 340,447 L 340,448 L 339,449 L 339,450 L 338,451 L 338,452 L 337,453 L 337,454 L 336,455 L 336,456 L 335,457 L 335,458 L 334,459 L 334,461 L 333,462 L 333,463 L 332,464 L 332,465 L 331,466 L 331,468 L 330,469 L 330,471 L 329,472 L 329,473 L 328,474 L 328,476 L 327,477 L 327,479 L 326,480 L 326,483 L 325,484 L 325,486 L 324,487 L 324,490 L 323,491 L 323,495 L 322,496 L 322,500 L 321,501 L 321,506 L 320,507 L 320,515 L 319,516 L 319,544 L 320,545 L 320,553 L 321,554 L 321,559 L 322,560 L 322,564 L 323,565 L 323,568 L 324,569 L 324,572 L 325,573 L 325,576 L 326,577 L 326,579 L 327,580 L 327,582 L 328,583 L 328,585 L 329,586 L 329,588 L 330,589 L 330,590 L 331,591 L 331,592 L 332,593 L 332,594 L 333,595 L 333,596 L 334,597 L 334,598 L 335,599 L 335,600 L 339,604 L 343,604 L 344,603 L 344,602 L 345,601 L 345,600 L 346,599 L 346,598 L 348,596 L 348,595 L 349,594 L 349,593 L 350,592 L 350,591 L 352,589 L 352,588 L 353,587 L 353,586 L 355,584 L 355,583 L 357,581 L 357,580 L 359,578 L 359,577 L 361,575 L 361,574 L 363,572 L 363,571 L 366,568 L 366,567 L 369,564 L 369,563 L 372,560 L 372,559 L 375,556 L 375,555 L 379,551 L 379,550 L 385,544 L 385,543 L 392,536 L 392,535 L 423,504 L 424,504 L 431,497 L 432,497 L 438,491 L 439,491 L 444,486 L 445,486 L 449,482 L 450,482 L 453,479 L 454,479 L 457,476 L 458,476 L 461,473 L 462,473 L 465,470 L 466,470 L 468,468 L 469,468 L 472,465 L 473,465 L 475,463 L 476,463 L 478,461 L 479,461 L 481,459 L 482,459 L 484,457 L 485,457 L 487,455 L 488,455 L 490,453 L 491,453 L 493,451 L 494,451 L 496,449 L 497,449 L 498,448 L 499,448 L 501,446 L 502,446 L 504,444 L 505,444 L 506,443 L 507,443 L 509,441 L 510,441 L 511,440 L 512,440 L 514,438 L 515,438 L 516,437 L 517,437 L 518,436 L 519,436 L 521,434 L 522,434 L 523,433 L 524,433 L 525,432 L 526,432 L 528,430 L 529,430 L 530,429 L 531,429 L 532,428 L 533,428 L 534,427 L 535,427 L 537,425 L 538,425 L 539,424 L 540,424 L 541,423 L 542,423 L 543,422 L 544,422 L 546,420 L 547,420 L 548,419 L 549,419 L 550,418 L 551,418 L 552,417 L 553,417 L 554,416 L 555,416 L 556,415 L 557,415 L 558,414 L 559,414 L 561,412 L 562,412 L 563,411 L 564,411 L 565,410 L 566,410 L 567,409 L 568,409 L 569,408 L 570,408 L 571,407 L 572,407 L 573,406 L 574,406 L 575,405 L 576,405 L 577,404 L 578,404 L 579,403 L 580,403 L 581,402 L 582,402 L 583,401 L 584,401 L 585,400 L 586,400 L 588,398 L 589,398 L 590,397 L 591,397 L 592,396 L 593,396 L 594,395 L 595,395 L 596,394 L 598,394 L 599,393 L 600,393 L 601,392 L 602,392 L 603,391 L 604,391 L 605,390 L 606,390 L 607,389 L 609,389 L 610,388 L 611,388 L 612,389 L 612,390 L 607,395 L 606,395 L 601,400 L 600,400 L 595,405 L 594,405 L 591,408 L 590,408 L 586,412 L 585,412 L 582,415 L 581,415 L 578,418 L 577,418 L 574,421 L 573,421 L 570,424 L 569,424 L 566,427 L 565,427 L 562,430 L 561,430 L 558,433 L 557,433 L 555,435 L 554,435 L 551,438 L 550,438 L 547,441 L 546,441 L 544,443 L 543,443 L 540,446 L 539,446 L 536,449 L 535,449 L 532,452 L 531,452 L 528,455 L 527,455 L 525,457 L 524,457 L 521,460 L 520,460 L 517,463 L 516,463 L 514,465 L 513,465 L 511,467 L 510,467 L 507,470 L 506,470 L 503,473 L 502,473 L 499,476 L 498,476 L 495,479 L 494,479 L 490,483 L 489,483 L 485,487 L 484,487 L 480,491 L 479,491 L 475,495 L 474,495 L 467,502 L 466,502 L 458,510 L 457,510 L 432,535 L 432,536 L 424,544 L 424,545 L 418,551 L 418,552 L 413,557 L 413,558 L 409,562 L 409,563 L 406,566 L 406,567 L 403,570 L 403,571 L 400,574 L 400,575 L 397,578 L 397,579 L 395,581 L 395,582 L 393,584 L 393,585 L 391,587 L 391,588 L 389,590 L 389,591 L 387,593 L 387,594 L 385,596 L 385,597 L 383,599 L 383,600 L 382,601 L 382,602 L 380,604 L 380,605 L 379,606 L 379,607 L 377,609 L 377,610 L 376,611 L 376,612 L 375,613 L 375,614 L 374,615 L 374,616 L 372,618 L 372,619 L 371,620 L 371,621 L 370,622 L 370,623 L 369,624 L 369,625 L 368,626 L 368,627 L 367,628 L 367,629 L 366,630 L 366,631 L 365,632 L 365,633 L 364,634 L 364,635 L 363,636 L 363,637 L 362,638 L 362,640 L 361,641 L 361,642 L 360,643 L 360,644 L 359,645 L 359,647 L 358,648 L 358,649 L 357,650 L 357,652 L 356,653 L 356,654 L 355,655 L 355,657 L 354,658 L 354,660 L 353,661 L 353,662 L 352,663 L 352,665 L 351,666 L 351,668 L 350,669 L 350,671 L 349,672 L 349,675 L 348,676 L 348,678 L 347,679 L 347,682 L 346,683 L 346,686 L 345,687 L 345,690 L 344,691 L 344,695 L 343,696 L 343,700 L 342,701 L 342,707 L 341,708 L 341,716 L 340,717 L 340,743 L 341,744 L 341,753 L 342,754 L 342,760 L 343,761 L 343,766 L 344,767 L 344,771 L 345,772 L 345,776 L 346,777 L 346,778 L 348,780 L 348,781 L 350,783 L 351,783 L 353,785 L 354,785 L 355,786 L 357,786 L 358,787 L 370,787 L 371,786 L 373,786 L 374,785 L 375,785 L 380,780 L 380,779 L 381,778 L 381,777 L 382,776 L 382,766 L 381,765 L 381,760 L 380,759 L 380,754 L 379,753 L 379,747 L 378,746 L 378,738 L 377,737 L 377,707 L 378,706 L 378,700 L 379,699 L 379,694 L 380,693 L 380,689 L 381,688 L 381,684 L 382,683 L 382,680 L 383,679 L 383,676 L 384,675 L 384,673 L 385,672 L 385,670 L 386,669 L 386,666 L 387,665 L 387,663 L 388,662 L 388,660 L 389,659 L 389,657 L 390,656 L 390,654 L 391,653 L 391,652 L 392,651 L 392,649 L 393,648 L 393,646 L 394,645 L 394,644 L 395,643 L 405,643 L 406,644 L 440,644 L 441,643 L 454,643 L 455,642 L 464,642 L 465,641 L 471,641 L 472,640 L 478,640 L 479,639 L 483,639 L 484,638 L 488,638 L 489,637 L 493,637 L 494,636 L 498,636 L 499,635 L 502,635 L 503,634 L 506,634 L 507,633 L 510,633 L 511,632 L 513,632 L 514,631 L 517,631 L 518,630 L 520,630 L 521,629 L 523,629 L 524,628 L 526,628 L 527,627 L 529,627 L 530,626 L 532,626 L 533,625 L 535,625 L 536,624 L 538,624 L 539,623 L 540,623 L 541,622 L 543,622 L 544,621 L 545,621 L 546,620 L 548,620 L 549,619 L 550,619 L 551,618 L 553,618 L 554,617 L 555,617 L 556,616 L 557,616 L 558,615 L 559,615 L 560,614 L 562,614 L 563,613 L 564,613 L 565,612 L 566,612 L 567,611 L 568,611 L 569,610 L 570,610 L 571,609 L 572,609 L 573,608 L 574,608 L 575,607 L 576,607 L 578,605 L 579,605 L 580,604 L 581,604 L 582,603 L 583,603 L 584,602 L 585,602 L 587,600 L 588,600 L 589,599 L 590,599 L 592,597 L 593,597 L 594,596 L 595,596 L 597,594 L 598,594 L 600,592 L 601,592 L 602,591 L 603,591 L 605,589 L 606,589 L 608,587 L 609,587 L 612,584 L 613,584 L 616,581 L 617,581 L 619,579 L 620,579 L 624,575 L 625,575 L 629,571 L 630,571 L 636,565 L 637,565 L 657,545 L 657,544 L 663,538 L 663,537 L 667,533 L 667,532 L 670,529 L 670,528 L 673,525 L 673,524 L 675,522 L 675,521 L 677,519 L 677,518 L 679,516 L 679,515 L 681,513 L 681,512 L 683,510 L 683,509 L 685,507 L 685,506 L 686,505 L 686,504 L 688,502 L 688,501 L 689,500 L 689,499 L 690,498 L 690,497 L 692,495 L 692,494 L 693,493 L 693,492 L 694,491 L 694,490 L 695,489 L 695,488 L 697,486 L 697,485 L 698,484 L 698,483 L 699,482 L 699,481 L 700,480 L 700,479 L 701,478 L 701,477 L 702,476 L 702,474 L 703,473 L 703,472 L 704,471 L 704,470 L 705,469 L 705,468 L 706,467 L 706,465 L 707,464 L 707,463 L 708,462 L 708,460 L 709,459 L 709,458 L 710,457 L 710,455 L 711,454 L 711,452 L 712,451 L 712,449 L 713,448 L 713,446 L 714,445 L 714,443 L 715,442 L 715,440 L 716,439 L 716,436 L 717,435 L 717,432 L 718,431 L 718,428 L 719,427 L 719,423 L 720,422 L 720,419 L 721,418 L 721,413 L 722,412 L 722,407 L 723,406 L 723,400 L 724,399 L 724,393 L 725,392 L 725,383 L 726,382 L 726,370 L 727,369 L 727,328 L 726,327 L 726,316 L 725,315 L 725,307 L 724,306 L 724,299 L 723,298 L 723,293 L 722,292 L 722,287 L 721,286 L 721,282 L 720,281 L 720,277 L 719,276 L 719,272 L 718,271 L 718,268 L 717,267 L 717,264 L 716,263 L 716,260 L 715,259 L 715,257 L 714,256 L 714,253 L 713,252 L 713,250 L 712,249 L 712,247 L 711,246 L 711,244 L 710,243 L 710,242 L 709,241 L 709,240 L 708,239 L 708,238 L 706,236 L 705,236 L 704,235 Z" fill="black" /></svg>