<?xml version="1.0" encoding="utf-8" ?>
<svg baseProfile="full" height="1024" version="1.1" width="1024" xmlns="http://www.w3.org/2000/svg" xmlns:ev="http://www.w3.org/2001/xml-events" xmlns:xlink="http://www.w3.org/1999/xlink"><defs /><path d="M 763,218 L 762,219 L 760,219 L 759,220 L 758,220 L 757,221 L 755,221 L 754,222 L 753,222 L 752,223 L 751,223 L 750,224 L 748,224 L 747,225 L 746,225 L 745,226 L 744,226 L 743,227 L 742,227 L 741,228 L 739,228 L 738,229 L 737,229 L 736,230 L 735,230 L 734,231 L 732,231 L 731,232 L 730,232 L 729,233 L 728,233 L 727,234 L 726,234 L 725,235 L 723,235 L 722,236 L 721,236 L 720,237 L 719,237 L 718,238 L 716,238 L 715,239 L 714,239 L 713,240 L 712,240 L 711,241 L 710,241 L 709,242 L 707,242 L 706,243 L 705,243 L 704,244 L 703,244 L 702,245 L 701,245 L 700,246 L 698,246 L 697,247 L 696,247 L 694,249 L 693,249 L 691,251 L 690,251 L 687,254 L 686,254 L 591,349 L 591,350 L 374,567 L 373,567 L 328,522 L 326,522 L 325,521 L 315,521 L 314,522 L 313,522 L 300,535 L 300,538 L 299,539 L 299,543 L 300,544 L 300,547 L 301,548 L 301,549 L 302,550 L 302,551 L 346,595 L 346,596 L 349,599 L 258,690 L 255,690 L 254,691 L 247,691 L 246,692 L 245,692 L 244,693 L 243,693 L 242,694 L 241,694 L 239,696 L 238,696 L 238,697 L 234,701 L 234,702 L 233,703 L 233,704 L 232,705 L 232,706 L 231,707 L 231,709 L 230,710 L 230,724 L 231,725 L 231,727 L 232,728 L 232,729 L 234,731 L 234,732 L 259,757 L 260,757 L 264,761 L 265,761 L 266,762 L 267,762 L 268,763 L 269,763 L 270,764 L 273,764 L 274,765 L 280,765 L 281,764 L 284,764 L 285,763 L 287,763 L 288,762 L 289,762 L 290,761 L 291,761 L 293,759 L 294,759 L 300,753 L 300,752 L 301,751 L 301,750 L 302,749 L 302,747 L 303,746 L 303,744 L 304,743 L 304,736 L 393,647 L 393,646 L 395,644 L 398,647 L 398,649 L 403,654 L 404,654 L 442,692 L 443,692 L 444,693 L 446,693 L 447,694 L 455,694 L 456,693 L 457,693 L 458,692 L 459,692 L 469,682 L 469,681 L 470,680 L 470,677 L 471,676 L 471,672 L 470,671 L 470,668 L 469,667 L 469,666 L 468,665 L 468,664 L 440,636 L 440,635 L 426,621 L 426,619 L 519,526 L 519,525 L 739,305 L 739,304 L 743,300 L 743,299 L 744,298 L 744,297 L 745,296 L 745,295 L 747,293 L 747,291 L 748,290 L 748,287 L 749,286 L 749,285 L 750,284 L 750,283 L 751,282 L 751,281 L 752,280 L 752,279 L 753,278 L 753,277 L 754,276 L 754,275 L 755,274 L 755,273 L 756,272 L 756,270 L 757,269 L 757,268 L 758,267 L 758,266 L 759,265 L 759,264 L 760,263 L 760,262 L 761,261 L 761,260 L 762,259 L 762,258 L 763,257 L 763,255 L 764,254 L 764,253 L 765,252 L 765,251 L 766,250 L 766,249 L 767,248 L 767,247 L 768,246 L 768,244 L 769,243 L 769,242 L 770,241 L 770,240 L 771,239 L 771,238 L 772,237 L 772,236 L 773,235 L 773,234 L 774,233 L 774,224 L 772,222 L 772,221 L 771,221 L 769,219 L 766,219 L 765,218 Z" fill="black" /></svg>